<?xml version="1.0" encoding="UTF-8" standalone="no"?>
<!-- Created with Inkscape (http://www.inkscape.org/) -->

<svg
   xmlns:dc="http://purl.org/dc/elements/1.1/"
   xmlns:cc="http://creativecommons.org/ns#"
   xmlns:rdf="http://www.w3.org/1999/02/22-rdf-syntax-ns#"
   xmlns:svg="http://www.w3.org/2000/svg"
   xmlns="http://www.w3.org/2000/svg"
   xmlns:sodipodi="http://sodipodi.sourceforge.net/DTD/sodipodi-0.dtd"
   xmlns:inkscape="http://www.inkscape.org/namespaces/inkscape"
   version="1.1"
   width="24"
   height="24"
   id="svg2"
   inkscape:version="0.92.3 (2405546, 2018-03-11)"
   sodipodi:docname="book-paper.svg">
  <sodipodi:namedview
     pagecolor="#ffffff"
     bordercolor="#666666"
     borderopacity="1"
     objecttolerance="10"
     gridtolerance="10"
     guidetolerance="10"
     inkscape:pageopacity="0"
     inkscape:pageshadow="2"
     inkscape:window-width="1920"
     inkscape:window-height="1001"
     id="namedview3043"
     showgrid="false"
     inkscape:zoom="25.348554"
     inkscape:cx="23.94794"
     inkscape:cy="12.35955"
     inkscape:window-x="-9"
     inkscape:window-y="-9"
     inkscape:window-maximized="1"
     inkscape:current-layer="layer1">
    <inkscape:grid
       type="xygrid"
       id="grid4204"
       empspacing="4"
       visible="true"
       enabled="true"
       snapvisiblegridlinesonly="true" />
  </sodipodi:namedview>
  <defs
     id="defs4" />
  <metadata
     id="metadata7">
    <rdf:RDF>
      <cc:Work
         rdf:about="">
        <dc:format>image/svg+xml</dc:format>
        <dc:type
           rdf:resource="http://purl.org/dc/dcmitype/StillImage" />
        <dc:title />
      </cc:Work>
    </rdf:RDF>
  </metadata>
  <g
     transform="translate(0,-1028.3622)"
     id="layer1">
    <path
       d="M 3,8 3,10 3,11 3,14 3,15 3,20 3,21 C 3,22.1046 3.89543,23 5,23 L 19,23 C 20.104569,23 21,22.1046 21,21 L 21,20 21,15 21,11 21,8 3,8 z"
       inkscape:connector-curvature="0"
       transform="translate(0,1028.3622)"
       id="path2987-2"
       style="fill:#1a95bc;fill-opacity:1;fill-rule:nonzero;stroke:none;font-variant-east_asian:normal;opacity:1;vector-effect:none;stroke-width:1;stroke-linecap:butt;stroke-linejoin:miter;stroke-miterlimit:4;stroke-dasharray:none;stroke-dashoffset:0;stroke-opacity:1" />
    <path
       d="M 3,1035.3622 3,1037.3622 3,1038.3622 3,1041.3622 3,1042.3622 3,1047.3622 3,1048.3622 C 3,1049.4668 3.89543,1050.3622 5,1050.3622 L 19,1050.3622 C 20.104569,1050.3622 21,1049.4668 21,1048.3622 L 21,1047.3622 21,1042.3622 21,1038.3622 21,1035.3622 3,1035.3622 z"
       inkscape:connector-curvature="0"
       id="path2987-2-3"
       style="fill:#ecf0f1;fill-opacity:1;fill-rule:nonzero;stroke:none" />
    <path
       d="M 3,1034.3622 3,1036.3622 3,1037.3622 3,1040.3622 3,1041.3622 3,1046.3622 3,1047.3622 C 3,1048.4668 3.89543,1049.3622 5,1049.3622 L 19,1049.3622 C 20.104569,1049.3622 21,1048.4668 21,1047.3622 L 21,1046.3622 21,1041.3622 21,1037.3622 21,1034.3622 3,1034.3622 z"
       inkscape:connector-curvature="0"
       id="path2987-2-3-5"
       style="fill:#bdc3c7;fill-opacity:1;fill-rule:nonzero;stroke:none" />
    <path
       d="M 3,1033.3622 3,1035.3622 3,1036.3622 3,1039.3622 3,1040.3622 3,1045.3622 3,1046.3622 C 3,1047.4668 3.89543,1048.3622 5,1048.3622 L 19,1048.3622 C 20.104569,1048.3622 21,1047.4668 21,1046.3622 L 21,1045.3622 21,1040.3622 21,1036.3622 21,1033.3622 3,1033.3622 z"
       inkscape:connector-curvature="0"
       id="path2987-2-3-9"
       style="fill:#ecf0f1;fill-opacity:1;fill-rule:nonzero;stroke:none" />
    <path
       d="M 5,1 C 3.895431,1 3,1.8954 3,3 L 3,4 3,8 3,10 3,11 3,14 3,15 3,20 3,21 C 3,22.1046 3.89543,23 5,23 L 7,23 7,22 5.5,22 C 4.671573,22 4,21.3284 4,20.5 4,19.6716 4.671573,19 5.5,19 L 18,19 19,19 C 20.104569,19 21,18.1046 21,17 L 21,16 21,11 21,7 21,4 21,3 C 21,1.8954 20.10457,1 19,1 L 15,1 5,1 z"
       inkscape:connector-curvature="0"
       transform="translate(0,1028.3622)"
       id="path2987-2-5"
       style="fill:#167da0;fill-opacity:1;fill-rule:nonzero;stroke:none" />
    <path
       d="M 8,1 8,19 9,19 18,19 19,19 C 20.104569,19 21,18.1046 21,17 L 21,16 21,11 21,7 21,4 21,3 C 21,1.8954 20.10457,1 19,1 L 15,1 9,1 8,1 z"
       inkscape:connector-curvature="0"
       transform="translate(0,1028.3622)"
       id="path2987-2-5-4"
       style="fill:#1a95bc;fill-opacity:1;fill-rule:nonzero;stroke:none" />
    <text
       xml:space="preserve"
       style="font-style:normal;font-variant:normal;font-weight:normal;font-stretch:normal;font-size:4.41414213px;line-height:1.25;font-family:arial;-inkscape-font-specification:arial;text-align:center;letter-spacing:0px;word-spacing:0px;text-anchor:middle;fill:#ffffff;fill-opacity:1;stroke:#ffffff;stroke-width:0.37432441;stroke-miterlimit:4;stroke-dasharray:none;stroke-opacity:1"
       x="14.170129"
       y="1037.1058"
       id="text8467"
       transform="scale(1.0002786,0.99972147)"><tspan
         sodipodi:role="line"
         id="tspan8465"
         x="14.170129"
         y="1037.1058"
         style="font-style:normal;font-variant:normal;font-weight:normal;font-stretch:normal;font-family:'Segoe UI';-inkscape-font-specification:'Segoe UI';text-align:center;text-anchor:middle;fill:#ffffff;fill-opacity:1;stroke:#ffffff;stroke-width:0.37432441;stroke-miterlimit:4;stroke-dasharray:none;stroke-opacity:1"><tspan
   style="font-weight:bold;text-align:center;text-anchor:middle;stroke:#ffffff;stroke-width:0.37432441;stroke-miterlimit:4;stroke-dasharray:none;stroke-opacity:1"
   id="tspan8471">Y</tspan>=</tspan><tspan
         sodipodi:role="line"
         x="14.170129"
         y="1042.6235"
         style="font-style:normal;font-variant:normal;font-weight:normal;font-stretch:normal;font-family:'Segoe UI';-inkscape-font-specification:'Segoe UI';text-align:center;text-anchor:middle;fill:#ffffff;fill-opacity:1;stroke:#ffffff;stroke-width:0.37432441;stroke-miterlimit:4;stroke-dasharray:none;stroke-opacity:1"
         id="tspan8496">A<tspan
   style="font-weight:bold;text-align:center;text-anchor:middle;stroke:#ffffff;stroke-width:0.37432441;stroke-miterlimit:4;stroke-dasharray:none;stroke-opacity:1"
   id="tspan8469">X</tspan>+B</tspan></text>
    <path
       style="opacity:1;vector-effect:none;fill:#1a95bc;fill-opacity:1;fill-rule:nonzero;stroke:none;stroke-width:1;stroke-linecap:butt;stroke-linejoin:miter;stroke-miterlimit:4;stroke-dasharray:none;stroke-dashoffset:0;stroke-opacity:1"
       id="path8476"
       inkscape:connector-curvature="0"
       d="m 41.255675,1035.6431 v 2 1 3 1 5 1 c 0,1.1046 0.89543,2 2,2 h 14 c 1.104569,0 2,-0.8954 2,-2 v -1 -5 -4 -3 z" />
    <path
       style="fill:#ecf0f1;fill-opacity:1;fill-rule:nonzero;stroke:none"
       id="path8478"
       inkscape:connector-curvature="0"
       d="m 41.255675,1034.6431 v 2 1 3 1 5 1 c 0,1.1046 0.89543,2 2,2 h 14 c 1.104569,0 2,-0.8954 2,-2 v -1 -5 -4 -3 z" />
    <path
       style="fill:#bdc3c7;fill-opacity:1;fill-rule:nonzero;stroke:none"
       id="path8480"
       inkscape:connector-curvature="0"
       d="m 41.255675,1033.6431 v 2 1 3 1 5 1 c 0,1.1046 0.89543,2 2,2 h 14 c 1.104569,0 2,-0.8954 2,-2 v -1 -5 -4 -3 z" />
    <path
       style="fill:#ecf0f1;fill-opacity:1;fill-rule:nonzero;stroke:none"
       id="path8482"
       inkscape:connector-curvature="0"
       d="m 41.255675,1032.6431 v 2 1 3 1 5 1 c 0,1.1046 0.89543,2 2,2 h 14 c 1.104569,0 2,-0.8954 2,-2 v -1 -5 -4 -3 z" />
    <path
       style="fill:#167da0;fill-opacity:1;fill-rule:nonzero;stroke:none"
       id="path8484"
       inkscape:connector-curvature="0"
       d="m 43.255675,1028.6431 c -1.104569,0 -2,0.8954 -2,2 v 1 4 2 1 3 1 5 1 c 0,1.1046 0.89543,2 2,2 h 2 v -1 h -1.5 c -0.828427,0 -1.5,-0.6716 -1.5,-1.5 0,-0.8284 0.671573,-1.5 1.5,-1.5 h 12.5 1 c 1.104569,0 2,-0.8954 2,-2 v -1 -5 -4 -3 -1 c 0,-1.1046 -0.89543,-2 -2,-2 h -4 z" />
    <path
       style="fill:#1a95bc;fill-opacity:1;fill-rule:nonzero;stroke:none"
       id="path8486"
       inkscape:connector-curvature="0"
       d="m 46.255675,1028.6431 v 18 h 1 9 1 c 1.104569,0 2,-0.8954 2,-2 v -1 -5 -4 -3 -1 c 0,-1.1046 -0.89543,-2 -2,-2 h -4 -6 z" />
    <text
       id="text8494"
       y="1039.3524"
       x="42.651852"
       style="font-style:normal;font-variant:normal;font-weight:normal;font-stretch:normal;font-size:4.05919218px;line-height:1.25;font-family:arial;-inkscape-font-specification:arial;letter-spacing:0px;word-spacing:0px;fill:#ffffff;fill-opacity:1;stroke:none;stroke-width:1"
       xml:space="preserve"><tspan
         style="font-style:normal;font-variant:normal;font-weight:normal;font-stretch:normal;font-family:'Segoe UI';-inkscape-font-specification:'Segoe UI';fill:#ffffff;fill-opacity:1;stroke-width:2.81651306"
         y="1039.3524"
         x="42.651852"
         id="tspan8492"
         sodipodi:role="line"><tspan
   id="tspan8488"
   style="font-weight:bold">Y</tspan>=A<tspan
   id="tspan8490"
   style="font-weight:bold">X</tspan>+B</tspan></text>
  </g>
</svg>
