<?xml version="1.0" encoding="UTF-8" standalone="no"?>
<!-- Created with Inkscape (http://www.inkscape.org/) -->

<svg
   xmlns:dc="http://purl.org/dc/elements/1.1/"
   xmlns:cc="http://creativecommons.org/ns#"
   xmlns:rdf="http://www.w3.org/1999/02/22-rdf-syntax-ns#"
   xmlns:svg="http://www.w3.org/2000/svg"
   xmlns="http://www.w3.org/2000/svg"
   xmlns:sodipodi="http://sodipodi.sourceforge.net/DTD/sodipodi-0.dtd"
   xmlns:inkscape="http://www.inkscape.org/namespaces/inkscape"
   version="1.1"
   width="24"
   height="24"
   id="svg2"
   inkscape:version="0.92.3 (2405546, 2018-03-11)"
   sodipodi:docname="calendar-clock.svg">
  <sodipodi:namedview
     pagecolor="#ffffff"
     bordercolor="#666666"
     borderopacity="1"
     objecttolerance="10"
     gridtolerance="10"
     guidetolerance="10"
     inkscape:pageopacity="0"
     inkscape:pageshadow="2"
     inkscape:window-width="1920"
     inkscape:window-height="1001"
     id="namedview3192"
     showgrid="false"
     inkscape:zoom="19.666667"
     inkscape:cx="12.021774"
     inkscape:cy="12.702271"
     inkscape:window-x="-9"
     inkscape:window-y="-9"
     inkscape:window-maximized="1"
     inkscape:current-layer="svg2"
     inkscape:snap-bbox="true"
     inkscape:snap-nodes="true"
     inkscape:snap-global="true">
    <inkscape:grid
       type="xygrid"
       id="grid4181"
       empspacing="4"
       visible="true"
       enabled="true"
       snapvisiblegridlinesonly="true" />
  </sodipodi:namedview>
  <defs
     id="defs4" />
  <metadata
     id="metadata7">
    <rdf:RDF>
      <cc:Work
         rdf:about="">
        <dc:format>image/svg+xml</dc:format>
        <dc:type
           rdf:resource="http://purl.org/dc/dcmitype/StillImage" />
        <dc:title />
      </cc:Work>
    </rdf:RDF>
  </metadata>
  <g
     id="g891"
     transform="matrix(0.99998857,0,0,1,0.08335671,-1028.0901)"
     style="stroke-width:1.00000572">
    <path
       id="path854"
       transform="translate(0,1028.3622)"
       d="m 5.0507812,2.59375 c -1.1045689,0 -2,0.8954 -2,2 v 2 12 2 c 0,1.1046 0.8954301,2 2,2 h 5.9999998 2 6 c 1.10457,0 2,-0.8954 2,-2 v -2 -12 -2 c 0,-1.1046 -0.895431,-2 -2,-2 h -6 -2 z"
       style="opacity:1;vector-effect:none;fill:#ffffff;fill-opacity:1;fill-rule:nonzero;stroke:#a0a0a0;stroke-width:0.26820755;stroke-linecap:round;stroke-linejoin:round;stroke-miterlimit:4;stroke-dasharray:none;stroke-dashoffset:0;stroke-opacity:1;paint-order:fill markers stroke"
       inkscape:connector-curvature="0" />
    <path
       inkscape:connector-curvature="0"
       id="path2987-6-0-3"
       d="m 5.0508475,1030.9554 c -1.104569,0 -2,0.8954 -2,2 v 3 1 H 21.050847 v -1 -3 c 0,-1.1046 -0.895431,-2 -2,-2 h -6 -2 z"
       style="fill:#e74c3c;fill-opacity:1;fill-rule:nonzero;stroke:none;stroke-width:1.00000572" />
    <path
       inkscape:connector-curvature="0"
       style="fill:#c0392b;fill-opacity:1;fill-rule:nonzero;stroke:none;stroke-width:1.00000572"
       id="path3201"
       d="m 7.5508475,1033.4554 a 1.5,1.5 0 1 1 -3,0 1.5,1.5 0 1 1 3,0 z" />
    <path
       inkscape:connector-curvature="0"
       style="fill:#c0392b;fill-opacity:1;fill-rule:nonzero;stroke:none;stroke-width:1.00000572"
       id="path3201-2"
       d="m 19.550847,1033.4554 a 1.5,1.5 0 1 1 -3,0 1.5,1.5 0 1 1 3,0 z" />
    <path
       style="fill:#bdc3c7;fill-opacity:1;fill-rule:nonzero;stroke:none;stroke-width:1.00000572"
       id="rect3260"
       inkscape:connector-curvature="0"
       d="m 5.0508475,1038.4469 v 2 h 2 v -2 z m 3,0 v 2 h 1.9999995 v -2 z m 2.9999995,0 v 2 h 2 v -2 z m 3,0 v 2 h 2 v -2 z m 3,0 v 2 h 2 v -2 z" />
    <path
       style="fill:#bdc3c7;fill-opacity:1;fill-rule:nonzero;stroke:none;stroke-width:1.00000572"
       id="rect3260-6"
       inkscape:connector-curvature="0"
       d="m 5.0508475,1041.4469 v 2 h 2 v -2 z m 3,0 v 2 h 1.9999995 v -2 z m 2.9999995,0 v 2 h 2 v -2 z m 3,0 v 2 h 2 v -2 z m 3,0 v 2 h 2 v -2 z" />
    <path
       style="fill:#bdc3c7;fill-opacity:1;fill-rule:nonzero;stroke:none;stroke-width:1.00000572"
       id="rect3260-6-1"
       inkscape:connector-curvature="0"
       d="m 5.0508475,1044.4469 v 2 h 2 v -2 z m 3,0 v 2 h 1.9999995 v -2 z m 2.9999995,0 v 2 h 2 v -2 z m 3,0 v 2 h 2 v -2 z m 3,0 v 2 h 2 v -2 z" />
    <path
       inkscape:connector-curvature="0"
       id="rect3118"
       d="m 6.0508475,1028.9554 c -0.5522847,0 -1,0.4477 -1,1 v 3 c 0,0.5523 0.4477153,1 1,1 0.5522847,0 1,-0.4477 1,-1 v -3 c 0,-0.5523 -0.4477153,-1 -1,-1 z m 11.9999995,0 c -0.552285,0 -1,0.4477 -1,1 v 3 c 0,0.5523 0.447715,1 1,1 0.552285,0 1,-0.4477 1,-1 v -3 c 0,-0.5523 -0.447715,-1 -1,-1 z"
       style="fill:#95a5a6;fill-opacity:1;fill-rule:nonzero;stroke:none;stroke-width:1.00000572" />
    <path
       inkscape:connector-curvature="0"
       id="rect3118-6"
       d="m 6.0508475,1028.9554 c -0.5522847,0 -1,0.4477 -1,1 v 2 h 2 v -2 c 0,-0.5523 -0.4477153,-1 -1,-1 z m 11.9999995,0 c -0.552285,0 -1,0.4477 -1,1 v 2 h 2 v -2 c 0,-0.5523 -0.447715,-1 -1,-1 z"
       style="fill:#bdc3c7;fill-opacity:1;fill-rule:nonzero;stroke:none;stroke-width:1.00000572" />
    <path
       d="m 5.0508475,1047.4469 v 2 h 2 v -2 z m 3,0 v 2 h 1.9999995 v -2 z m 2.9999995,0 v 2 h 2 v -2 z m 3,0 v 2 h 2 v -2 z m 3,0 v 2 h 2 v -2 z"
       inkscape:connector-curvature="0"
       id="path861"
       style="fill:#bdc3c7;fill-opacity:1;fill-rule:nonzero;stroke:none;stroke-width:1.00000572" />
  </g>
  <g
     id="g929"
     transform="translate(-18.202377,2.655237)">
    <ellipse
       ry="5.0416646"
       rx="5.0416665"
       style="fill:#34495e;fill-opacity:1;fill-rule:nonzero;stroke:none;stroke-width:0.42013881"
       id="path2996-1"
       cx="36.042374"
       cy="15.245728" />
    <path
       inkscape:connector-curvature="0"
       style="fill:#2c3e50;fill-opacity:1;fill-rule:nonzero;stroke:none"
       d="m 36.042373,10.204063 c -3.037566,0 -5.5,2.4625 -5.5,5.5 h 0.916667 c 0,-2.5313 2.052027,-4.5833 4.583333,-4.5833 2.531305,0 4.583333,2.052 4.583333,4.5833 h 0.916666 c 0,-3.0375 -2.462433,-5.5 -5.499999,-5.5 z"
       id="path2996-9" />
    <path
       inkscape:connector-curvature="0"
       style="fill:#bdc3c7;fill-opacity:1;fill-rule:nonzero;stroke:none"
       d="m 36.500706,14.787463 v 0.9166 h 0.458333 2.75 c 0.253138,0 0.458333,-0.2052 0.458333,-0.4583 0,-0.2531 -0.205195,-0.4583 -0.458333,-0.4583 h -2.75 z"
       id="rect3028" />
    <path
       style="fill:#bdc3c7;fill-opacity:1;fill-rule:nonzero;stroke:none"
       d="m 36.042373,12.037463 c -0.253138,0 -0.458334,0.2052 -0.458334,0.4583 v 1.8333 0.4584 h 0.916667 v -0.4584 -1.8333 c 0,-0.2531 -0.205196,-0.4583 -0.458333,-0.4583 z"
       id="rect3028-9"
       inkscape:connector-curvature="0" />
    <rect
       style="fill:#c0392b;fill-opacity:1;fill-rule:nonzero;stroke:none"
       id="rect3077"
       width="3.2083325"
       height="0.45833322"
       x="11.03601"
       y="36.061028"
       transform="rotate(-44.99999)" />
    <path
       style="fill:#bdc3c7;fill-opacity:1;fill-rule:nonzero;stroke:none"
       d="m 36.042373,14.329063 c -0.506261,0 -0.916667,0.4104 -0.916667,0.9167 0,0.5063 0.410406,0.9167 0.916667,0.9167 0.50626,0 0.916666,-0.4104 0.916666,-0.9167 0,-0.5063 -0.410406,-0.9167 -0.916666,-0.9167 z m 0,0.4584 c 0.25313,0 0.458333,0.2052 0.458333,0.4583 0,0.2531 -0.205203,0.4583 -0.458333,0.4583 -0.253131,0 -0.458334,-0.2052 -0.458334,-0.4583 0,-0.2531 0.205203,-0.4583 0.458334,-0.4583 z"
       id="path3002-4"
       inkscape:connector-curvature="0" />
    <path
       style="fill:#95a5a6;fill-opacity:1;fill-rule:nonzero;stroke:none"
       d="m 36.042373,9.7457628 c -3.037566,0 -5.5,2.4624002 -5.5,5.5000002 0,3.0376 2.462434,5.5 5.5,5.5 3.037566,0 5.499999,-2.4624 5.499999,-5.5 0,-3.0376 -2.462433,-5.5000002 -5.499999,-5.5000002 z m 0,0.9167002 c 2.531305,0 4.583333,2.052 4.583333,4.5833 0,2.5313 -2.052028,4.5833 -4.583333,4.5833 -2.531306,0 -4.583333,-2.052 -4.583333,-4.5833 0,-2.5313 2.052027,-4.5833 4.583333,-4.5833 z"
       id="path2996"
       inkscape:connector-curvature="0" />
    <ellipse
       ry="0.45833316"
       rx="0.45833331"
       style="fill:#2c3e50;fill-opacity:1;fill-rule:nonzero;stroke:none;stroke-width:0.45833322"
       id="path3019"
       cx="36.042374"
       cy="15.245761" />
    <path
       style="fill:#95a5a6;fill-opacity:1;fill-rule:nonzero;stroke:none"
       d="m 36.835061,14.784863 c 0.07826,0.135 0.128906,0.2911 0.128906,0.4584 0,0.1673 -0.05064,0.3233 -0.128906,0.4583 h 0.128906 0.372396 c 0.05203,-0.145 0.08594,-0.2954 0.08594,-0.4583 0,-0.163 -0.03391,-0.3133 -0.08594,-0.4584 h -0.372396 z"
       id="rect3028-62"
       inkscape:connector-curvature="0" />
  </g>
</svg>
