<?xml version="1.0" encoding="UTF-8" standalone="no"?>
<!-- Created with Inkscape (http://www.inkscape.org/) -->

<svg
   xmlns:dc="http://purl.org/dc/elements/1.1/"
   xmlns:cc="http://creativecommons.org/ns#"
   xmlns:rdf="http://www.w3.org/1999/02/22-rdf-syntax-ns#"
   xmlns:svg="http://www.w3.org/2000/svg"
   xmlns="http://www.w3.org/2000/svg"
   xmlns:sodipodi="http://sodipodi.sourceforge.net/DTD/sodipodi-0.dtd"
   xmlns:inkscape="http://www.inkscape.org/namespaces/inkscape"
   version="1.1"
   width="24"
   height="24"
   id="svg2"
   inkscape:version="0.92.3 (2405546, 2018-03-11)"
   sodipodi:docname="calendar-changepoint.svg">
  <sodipodi:namedview
     pagecolor="#ffffff"
     bordercolor="#666666"
     borderopacity="1"
     objecttolerance="10"
     gridtolerance="10"
     guidetolerance="10"
     inkscape:pageopacity="0"
     inkscape:pageshadow="2"
     inkscape:window-width="1920"
     inkscape:window-height="1001"
     id="namedview3192"
     showgrid="false"
     inkscape:zoom="33.379102"
     inkscape:cx="14.597142"
     inkscape:cy="10.139701"
     inkscape:window-x="-9"
     inkscape:window-y="-9"
     inkscape:window-maximized="1"
     inkscape:current-layer="g891"
     inkscape:snap-bbox="true"
     inkscape:snap-nodes="true"
     inkscape:snap-global="true">
    <inkscape:grid
       type="xygrid"
       id="grid4181"
       empspacing="4"
       visible="true"
       enabled="true"
       snapvisiblegridlinesonly="true" />
  </sodipodi:namedview>
  <defs
     id="defs4" />
  <metadata
     id="metadata7">
    <rdf:RDF>
      <cc:Work
         rdf:about="">
        <dc:format>image/svg+xml</dc:format>
        <dc:type
           rdf:resource="http://purl.org/dc/dcmitype/StillImage" />
        <dc:title></dc:title>
      </cc:Work>
    </rdf:RDF>
  </metadata>
  <g
     id="g891"
     transform="matrix(0.99998857,0,0,1,0.08335671,-1028.0901)"
     style="stroke-width:1.00000572">
    <path
       id="path854"
       transform="translate(0,1028.3622)"
       d="m 5.0507812,2.59375 c -1.1045689,0 -2,0.8954 -2,2 v 2 12 2 c 0,1.1046 0.8954301,2 2,2 h 5.9999998 2 6 c 1.10457,0 2,-0.8954 2,-2 v -2 -12 -2 c 0,-1.1046 -0.895431,-2 -2,-2 h -6 -2 z"
       style="opacity:1;vector-effect:none;fill:#ffffff;fill-opacity:1;fill-rule:nonzero;stroke:#a0a0a0;stroke-width:1.00000572;stroke-linecap:round;stroke-linejoin:round;stroke-miterlimit:4;stroke-dasharray:none;stroke-dashoffset:0;stroke-opacity:1;paint-order:fill markers stroke"
       inkscape:connector-curvature="0" />
    <path
       inkscape:connector-curvature="0"
       id="path2987-6-0-3"
       d="m 5.0508475,1030.9554 c -1.104569,0 -2,0.8954 -2,2 v 3 1 H 21.050847 v -1 -3 c 0,-1.1046 -0.895431,-2 -2,-2 h -6 -2 z"
       style="fill:#e74c3c;fill-opacity:1;fill-rule:nonzero;stroke:none;stroke-width:1.00000572" />
    <path
       inkscape:connector-curvature="0"
       style="fill:#c0392b;fill-opacity:1;fill-rule:nonzero;stroke:none;stroke-width:1.00000572"
       id="path3201"
       d="m 7.5508475,1033.4554 a 1.5,1.5 0 1 1 -3,0 1.5,1.5 0 1 1 3,0 z" />
    <path
       inkscape:connector-curvature="0"
       style="fill:#c0392b;fill-opacity:1;fill-rule:nonzero;stroke:none;stroke-width:1.00000572"
       id="path3201-2"
       d="m 19.550847,1033.4554 a 1.5,1.5 0 1 1 -3,0 1.5,1.5 0 1 1 3,0 z" />
    <path
       style="fill:#bdc3c7;fill-opacity:1;fill-rule:nonzero;stroke:none;stroke-width:1.00000572"
       id="rect3260"
       inkscape:connector-curvature="0"
       d="m 5.0508475,1038.4469 v 2 h 2 v -2 z m 3,0 v 2 h 1.9999995 v -2 z m 2.9999995,0 v 2 h 2 v -2 z m 3,0 v 2 h 2 v -2 z m 3,0 v 2 h 2 v -2 z" />
    <path
       style="fill:#bdc3c7;fill-opacity:1;fill-rule:nonzero;stroke:none;stroke-width:1.00000572"
       id="rect3260-6"
       inkscape:connector-curvature="0"
       d="m 5.0508475,1041.4469 v 2 h 2 v -2 z m 3,0 v 2 h 1.9999995 v -2 z m 2.9999995,0 v 2 h 2 v -2 z m 3,0 v 2 h 2 v -2 z m 3,0 v 2 h 2 v -2 z" />
    <path
       style="fill:#bdc3c7;fill-opacity:1;fill-rule:nonzero;stroke:none;stroke-width:1.00000572"
       id="rect3260-6-1"
       inkscape:connector-curvature="0"
       d="m 5.0508475,1044.4469 v 2 h 2 v -2 z m 3,0 v 2 h 1.9999995 v -2 z m 2.9999995,0 v 2 h 2 v -2 z m 3,0 v 2 h 2 v -2 z m 3,0 v 2 h 2 v -2 z" />
    <path
       inkscape:connector-curvature="0"
       id="rect3118"
       d="m 6.0508475,1028.9554 c -0.5522847,0 -1,0.4477 -1,1 v 3 c 0,0.5523 0.4477153,1 1,1 0.5522847,0 1,-0.4477 1,-1 v -3 c 0,-0.5523 -0.4477153,-1 -1,-1 z m 11.9999995,0 c -0.552285,0 -1,0.4477 -1,1 v 3 c 0,0.5523 0.447715,1 1,1 0.552285,0 1,-0.4477 1,-1 v -3 c 0,-0.5523 -0.447715,-1 -1,-1 z"
       style="fill:#95a5a6;fill-opacity:1;fill-rule:nonzero;stroke:none;stroke-width:1.00000572" />
    <path
       inkscape:connector-curvature="0"
       id="rect3118-6"
       d="m 6.0508475,1028.9554 c -0.5522847,0 -1,0.4477 -1,1 v 2 h 2 v -2 c 0,-0.5523 -0.4477153,-1 -1,-1 z m 11.9999995,0 c -0.552285,0 -1,0.4477 -1,1 v 2 h 2 v -2 c 0,-0.5523 -0.447715,-1 -1,-1 z"
       style="fill:#bdc3c7;fill-opacity:1;fill-rule:nonzero;stroke:none;stroke-width:1.00000572" />
    <path
       d="m 5.0508475,1047.4469 v 2 h 2 v -2 z m 3,0 v 2 h 1.9999995 v -2 z m 2.9999995,0 v 2 h 2 v -2 z m 3,0 v 2 h 2 v -2 z m 3,0 v 2 h 2 v -2 z"
       inkscape:connector-curvature="0"
       id="path861"
       style="fill:#bdc3c7;fill-opacity:1;fill-rule:nonzero;stroke:none;stroke-width:1.00000572" />
  </g>
  <g
     id="g1081"
     transform="matrix(0.87419128,0,0,0.87419128,9.3770943,-9.1959738)"
     style="stroke-width:1.14391446">
    <g
       id="g1089"
       transform="matrix(1,0,0,1.4417971,-7.2188171,-20.262543)"
       style="stroke-width:0.95266777">
      <rect
         ry="0.9424687"
         rx="0.9424687"
         y="29.096298"
         x="-2.655386"
         height="7.7768955"
         width="17.958582"
         id="rect1071"
         style="opacity:1;vector-effect:none;fill:#506d6f;fill-opacity:1;stroke:none;stroke-width:0.4002527;stroke-linecap:butt;stroke-linejoin:miter;stroke-miterlimit:4;stroke-dasharray:none;stroke-dashoffset:0;stroke-opacity:1;paint-order:fill markers stroke" />
      <rect
         style="opacity:1;vector-effect:none;fill:#34495e;fill-opacity:1;stroke:none;stroke-width:0.4002527;stroke-linecap:butt;stroke-linejoin:miter;stroke-miterlimit:4;stroke-dasharray:none;stroke-dashoffset:0;stroke-opacity:1;paint-order:fill markers stroke"
         id="rect1069"
         width="17.277998"
         height="7.2947693"
         x="-2.3298361"
         y="29.343302"
         rx="0.75041687"
         ry="0.75041687" />
      <g
         style="stroke-width:0.95266777"
         id="g1067"
         transform="matrix(0.93332452,0,0,0.85530757,36.990246,8.0485943)">
        <path
           style="fill:none;stroke:#bdc3c7;stroke-width:0.28580034;stroke-linecap:butt;stroke-linejoin:miter;stroke-miterlimit:4;stroke-dasharray:none;stroke-opacity:1"
           d="m -41.314541,31.121972 h 8.460058 v -3.973326 h 8.460058"
           id="path1003"
           inkscape:connector-curvature="0"
           sodipodi:nodetypes="cccc" />
        <path
           sodipodi:nodetypes="ccccccccc"
           inkscape:connector-curvature="0"
           id="path992"
           d="m -32.854483,27.148646 c -0.0082,-0.393728 0.686084,-2.525928 1.122252,0 0.165693,1.290808 0.406365,1.969191 0.971181,0 0.273333,-0.92598 0.519306,-2.243044 1.014343,0 0.521022,2.60243 0.96929,0.614334 1.100671,0 0.465769,-1.990948 0.78375,-1.207966 1.07909,0 0.515789,2.522335 0.977429,0.475401 1.143833,0 0.277589,-1.959533 0.667064,-1.258206 0.906435,0 0.402859,1.670196 0.776944,1.670196 1.122252,0"
           style="fill:none;stroke:#deceb4;stroke-width:0.47633389;stroke-linecap:round;stroke-linejoin:round;stroke-miterlimit:4;stroke-dasharray:none;stroke-opacity:1" />
        <path
           style="opacity:1;vector-effect:none;fill:none;fill-opacity:1;stroke:#a4d0df;stroke-width:0.47633389;stroke-linecap:round;stroke-linejoin:round;stroke-miterlimit:4;stroke-dasharray:none;stroke-dashoffset:0;stroke-opacity:1"
           d="m -41.314541,31.121972 c -0.0082,-0.393728 0.686084,-2.525928 1.122252,0 0.165694,1.290808 0.406366,1.969191 0.971181,0 0.273333,-0.92598 0.519306,-2.243044 1.014343,0 0.521022,2.60243 0.96929,0.614334 1.100671,0 0.465769,-1.990948 0.78375,-1.207966 1.07909,0 0.515789,2.522335 0.97743,0.475401 1.143834,0 0.277588,-1.959533 0.667064,-1.258206 0.906434,0 0.40286,1.670196 0.776944,1.670196 1.122253,0"
           id="path1020"
           inkscape:connector-curvature="0"
           sodipodi:nodetypes="ccccccccc" />
      </g>
    </g>
  </g>
</svg>
