<?xml version="1.0" encoding="UTF-8" standalone="no"?>
<!-- Created with Inkscape (http://www.inkscape.org/) -->

<svg
   xmlns:dc="http://purl.org/dc/elements/1.1/"
   xmlns:cc="http://creativecommons.org/ns#"
   xmlns:rdf="http://www.w3.org/1999/02/22-rdf-syntax-ns#"
   xmlns:svg="http://www.w3.org/2000/svg"
   xmlns="http://www.w3.org/2000/svg"
   xmlns:sodipodi="http://sodipodi.sourceforge.net/DTD/sodipodi-0.dtd"
   xmlns:inkscape="http://www.inkscape.org/namespaces/inkscape"
   version="1.1"
   width="24"
   height="24"
   id="svg2"
   inkscape:version="0.92.3 (2405546, 2018-03-11)"
   sodipodi:docname="file-excel.svg">
  <sodipodi:namedview
     pagecolor="#ffffff"
     bordercolor="#666666"
     borderopacity="1"
     objecttolerance="10"
     gridtolerance="10"
     guidetolerance="10"
     inkscape:pageopacity="0"
     inkscape:pageshadow="2"
     inkscape:window-width="1920"
     inkscape:window-height="1001"
     id="namedview3602"
     showgrid="false"
     inkscape:zoom="7.9999999"
     inkscape:cx="-21.013509"
     inkscape:cy="3.77301"
     inkscape:window-x="-9"
     inkscape:window-y="-9"
     inkscape:window-maximized="1"
     inkscape:current-layer="g5354">
    <inkscape:grid
       type="xygrid"
       id="grid4173"
       empspacing="4"
       visible="true"
       enabled="true"
       snapvisiblegridlinesonly="true" />
  </sodipodi:namedview>
  <defs
     id="defs4" />
  <metadata
     id="metadata7">
    <rdf:RDF>
      <cc:Work
         rdf:about="">
        <dc:format>image/svg+xml</dc:format>
        <dc:type
           rdf:resource="http://purl.org/dc/dcmitype/StillImage" />
        <dc:title />
      </cc:Work>
    </rdf:RDF>
  </metadata>
  <g
     transform="translate(0,-1028.3622)"
     id="layer1">
    <path
       d="M 21,1035.3622 15,1029.3622 15,1033.3622 C 15,1034.4668 15.89543,1035.3622 17,1035.3622 L 21,1035.3622 z"
       inkscape:connector-curvature="0"
       id="path2987-80"
       style="fill:#2a5a40;fill-opacity:1;fill-rule:nonzero;stroke:#3c6c52;stroke-opacity:1;stroke-linejoin:round;stroke-linecap:round" />
    <path
       style="fill:#ffffff;fill-opacity:1;stroke:none;stroke-width:1px;stroke-linecap:butt;stroke-linejoin:miter;stroke-opacity:1"
       d="m 16.748246,1033.8957 -10.392697,1.9161 v 10.5383 l 10.392697,1.6498 z m -7.772331,4.4665 h 1.544637 l 0.80642,1.7229 c 0.06291,0.1362 0.119208,0.298 0.169008,0.485 h 0.01555 c 0.03145,-0.1122 0.09054,-0.2792 0.177032,-0.5009 l 0.89619,-1.707 H 14 l -1.690575,2.8488 1.737717,2.8969 h -1.50552 l -0.970914,-1.8711 c -0.03669,-0.07 -0.07503,-0.1979 -0.114343,-0.3849 h -0.01555 c -0.01835,0.088 -0.06174,0.2218 -0.12989,0.4007 l -0.974926,1.8553 H 8.822455 l 1.796393,-2.8729 z"
       id="path850"
       inkscape:connector-curvature="0" />
    <g
       id="g5343"
       transform="matrix(0.26820604,0,0,0.26820604,12.183094,792.6471)">
      <g
         id="g5354">
        <path
           inkscape:connector-curvature="0"
           id="rect5266"
           d="m -24.444391,1065.3293 v 83.25 h 64 v -61.2285 l -22.023438,-22.0215 z"
           style="opacity:1;vector-effect:none;fill:#ffffff;fill-opacity:1;stroke:#a0a0a0;stroke-width:3.72847681;stroke-linecap:round;stroke-linejoin:round;stroke-miterlimit:4;stroke-dasharray:none;stroke-dashoffset:0;stroke-opacity:1;paint-order:fill markers stroke"
           transform="translate(-1.7684341,-184.55483)" />
        <path
           inkscape:connector-curvature="0"
           id="rect5264"
           d="m 17.805609,1065.6028 v 21.4765 h 21.478516 z"
           style="opacity:1;vector-effect:none;fill:#ffffff;fill-opacity:1;stroke:#a0a0a0;stroke-width:3.72847681;stroke-linecap:round;stroke-linejoin:round;stroke-miterlimit:4;stroke-dasharray:none;stroke-dashoffset:0;stroke-opacity:1;paint-order:fill markers stroke"
           transform="translate(-1.7684341,-184.55483)" />
        <path
           inkscape:connector-curvature="0"
           id="rect5281"
           d="m -9.1924408,1092.845 v 4.7715 H 13.258734 v -4.7715 z m 26.5156278,0 v 4.7715 H 31.11225 v -4.7715 z m -26.5156278,7.9902 v 4.7715 H 13.258734 v -4.7715 z m 26.5156278,0 v 4.7715 H 31.11225 v -4.7715 z m -26.5156278,7.9902 v 4.7715 H 13.258734 v -4.7715 z m 26.5156278,0 v 4.7715 H 31.11225 v -4.7715 z m -26.5156278,7.9903 v 4.7715 H 13.258734 v -4.7715 z m 26.5156278,0 v 4.7715 H 31.11225 v -4.7715 z m -26.5156278,7.9902 v 4.7715 H 13.258734 v -4.7715 z m 26.5156278,0 v 4.7715 H 31.11225 v -4.7715 z m -26.5156278,7.9902 v 4.7735 H 13.258734 v -4.7735 z m 26.5156278,0 v 4.7735 H 31.11225 v -4.7735 z"
           style="opacity:0.44900004;vector-effect:none;fill:#909090;fill-opacity:1;stroke:none;stroke-width:1;stroke-linecap:round;stroke-linejoin:round;stroke-miterlimit:4;stroke-dasharray:none;stroke-dashoffset:0;stroke-opacity:1;paint-order:fill markers stroke"
           transform="translate(-1.7684341,-184.55483)" />
        <path
           inkscape:connector-curvature="0"
           id="path5334"
           d="m -42.690677,908.38647 c 0,40.4746 0,40.2712 0,40.2712 l 40.4745722,6.305 v -53.8982 z"
           style="fill:#358057;fill-opacity:1;stroke:#000000;stroke-width:1px;stroke-linecap:butt;stroke-linejoin:miter;stroke-opacity:0.28640777" />
        <text
           id="text5338"
           y="940.08905"
           x="-23.0019"
           style="font-style:normal;font-variant:normal;font-weight:normal;font-stretch:normal;font-size:31.35784531px;line-height:1.25;font-family:arial;-inkscape-font-specification:arial;text-align:center;letter-spacing:0px;word-spacing:0px;text-anchor:middle;fill:#ffffff;fill-opacity:1;stroke:none;stroke-width:0.99999994"
           xml:space="preserve"><tspan
             style="font-style:normal;font-variant:normal;font-weight:bold;font-stretch:normal;font-family:'Segoe UI';-inkscape-font-specification:'Segoe UI';text-align:center;text-anchor:middle;fill:#ffffff;fill-opacity:1;stroke-width:0.99999994"
             y="940.08905"
             x="-23.0019"
             id="tspan5336"
             sodipodi:role="line">X</tspan></text>
      </g>
    </g>
  </g>
</svg>
