<?xml version="1.0" encoding="UTF-8" standalone="no"?>
<!-- Created with Inkscape (http://www.inkscape.org/) -->

<svg
   xmlns:dc="http://purl.org/dc/elements/1.1/"
   xmlns:cc="http://creativecommons.org/ns#"
   xmlns:rdf="http://www.w3.org/1999/02/22-rdf-syntax-ns#"
   xmlns:svg="http://www.w3.org/2000/svg"
   xmlns="http://www.w3.org/2000/svg"
   xmlns:sodipodi="http://sodipodi.sourceforge.net/DTD/sodipodi-0.dtd"
   xmlns:inkscape="http://www.inkscape.org/namespaces/inkscape"
   version="1.1"
   width="24"
   height="24"
   id="svg2"
   inkscape:version="0.92.3 (2405546, 2018-03-11)"
   sodipodi:docname="table-plot.svg">
  <sodipodi:namedview
     pagecolor="#ffffff"
     bordercolor="#666666"
     borderopacity="1"
     objecttolerance="10"
     gridtolerance="10"
     guidetolerance="10"
     inkscape:pageopacity="0"
     inkscape:pageshadow="2"
     inkscape:window-width="1920"
     inkscape:window-height="1001"
     id="namedview3602"
     showgrid="false"
     inkscape:zoom="7.1610366"
     inkscape:cx="12.470952"
     inkscape:cy="11.61903"
     inkscape:window-x="-9"
     inkscape:window-y="-9"
     inkscape:window-maximized="1"
     inkscape:current-layer="svg2">
    <inkscape:grid
       type="xygrid"
       id="grid4173"
       empspacing="4"
       visible="true"
       enabled="true"
       snapvisiblegridlinesonly="true" />
  </sodipodi:namedview>
  <defs
     id="defs4" />
  <metadata
     id="metadata7">
    <rdf:RDF>
      <cc:Work
         rdf:about="">
        <dc:format>image/svg+xml</dc:format>
        <dc:type
           rdf:resource="http://purl.org/dc/dcmitype/StillImage" />
        <dc:title></dc:title>
      </cc:Work>
    </rdf:RDF>
  </metadata>
  <rect
     style="opacity:1;vector-effect:none;fill:#ffffff;fill-opacity:1;stroke:none;stroke-width:1;stroke-linecap:round;stroke-linejoin:round;stroke-miterlimit:4;stroke-dasharray:none;stroke-dashoffset:0;stroke-opacity:1;paint-order:fill markers stroke"
     id="rect7805"
     width="18.552744"
     height="18.7731"
     x="1.9857484"
     y="2.8181157" />
  <g
     id="g7756"
     style="stroke:none;stroke-width:1.49528909;stroke-opacity:1"
     transform="matrix(0.66876701,0,0,0.66876701,8.3692476,26.261352)">
    <path
       style="opacity:1;vector-effect:none;fill:#bc5343;fill-opacity:1;stroke:none;stroke-width:0.40104544;stroke-linecap:round;stroke-linejoin:round;stroke-miterlimit:4;stroke-dasharray:none;stroke-dashoffset:0;stroke-opacity:1;paint-order:fill markers stroke"
       d="m -9.5451767,-28.179533 v -6.704991 H 18.670975 l -0.02971,6.704991 z"
       id="path6952-3"
       inkscape:connector-curvature="0"
       sodipodi:nodetypes="ccccc" />
    <path
       inkscape:connector-curvature="0"
       id="rect7717"
       d="m -10.078852,-35.962611 v 0.02734 h -0.02734 v 1.455078 h 0.02734 v 5.613282 h -0.02734 v 1.457031 h 0.02734 v 5.611328 h -0.02734 v 1.457031 h 0.02734 v 5.611328 h -0.02734 v 1.457032 h 0.02734 v 5.6113276 h -0.02734 v 1.4570313 h 0.02734 v 0.027344 h 1.4570319 v -0.027344 h 5.6113278 v 0.027344 h 1.4570312 v -0.027344 h 5.6113282 v 0.027344 h 1.4570312 v -0.027344 H 11.12818 v 0.027344 h 1.455078 v -0.027344 h 5.613281 v 0.027344 h 1.457031 v -0.027344 h 0.02539 v -1.4570313 h -0.02539 v -5.6113276 h 0.02539 v -1.457032 h -0.02539 v -5.611328 h 0.02539 v -1.457031 h -0.02539 v -5.611328 h 0.02539 v -1.457031 h -0.02539 v -5.613282 h 0.02539 v -1.455078 h -0.02539 v -0.02734 h -1.457031 v 0.02734 h -5.613281 v -0.02734 H 11.12818 v 0.02734 H 5.5148983 v -0.02734 H 4.0578671 v 0.02734 h -5.6113282 v -0.02734 h -1.4570312 v 0.02734 h -5.6113278 v -0.02734 z m 1.4570319,1.482422 h 5.6113278 v 5.613282 h -5.6113278 z m 7.068359,0 h 5.6113282 v 5.613282 h -5.6113282 z m 7.0683594,0 H 11.12818 v 5.613282 H 5.5148983 Z m 7.0683597,0 h 5.613281 v 5.613282 h -5.613281 z m -21.2050781,7.070313 h 5.6113278 v 5.611328 h -5.6113278 z m 7.068359,0 h 5.6113282 v 5.611328 h -5.6113282 z m 7.0683594,0 H 11.12818 v 5.611328 H 5.5148983 Z m 7.0683597,0 h 5.613281 v 5.611328 h -5.613281 z m -21.2050781,7.068359 h 5.6113278 v 5.611328 h -5.6113278 z m 7.068359,0 h 5.6113282 v 5.611328 h -5.6113282 z m 7.0683594,0 H 11.12818 v 5.611328 H 5.5148983 Z m 7.0683597,0 h 5.613281 v 5.611328 h -5.613281 z m -21.2050781,7.06836 h 5.6113278 v 5.6113276 h -5.6113278 z m 7.068359,0 h 5.6113282 v 5.6113276 h -5.6113282 z m 7.0683594,0 H 11.12818 v 5.6113276 H 5.5148983 Z m 7.0683597,0 h 5.613281 v 5.6113276 h -5.613281 z"
       style="opacity:1;vector-effect:none;fill:#a0a0a0;fill-opacity:1;stroke:none;stroke-width:0.40104559;stroke-linecap:round;stroke-linejoin:round;stroke-miterlimit:4;stroke-dasharray:none;stroke-dashoffset:0;stroke-opacity:1;paint-order:fill markers stroke" />
  </g>
  <path
     style="opacity:1;vector-effect:none;fill:#bc5343;fill-opacity:1;stroke:#262626;stroke-width:0.268206;stroke-linecap:round;stroke-linejoin:round;stroke-miterlimit:4;stroke-dasharray:none;stroke-dashoffset:0;stroke-opacity:1;paint-order:fill markers stroke"
     d="m 10.211359,13.74335 v -1.165931 h 12.342137 l -0.01299,1.165931 z"
     id="path6952"
     inkscape:connector-curvature="0"
     sodipodi:nodetypes="ccccc" />
  <path
     sodipodi:nodetypes="ccccc"
     inkscape:connector-curvature="0"
     id="rect5266"
     d="m 10.211358,13.74335 v 8.730802 h 12.342137 l -0.013,-8.730802 z"
     style="opacity:1;vector-effect:none;fill:#ffffff;fill-opacity:1;stroke:#262626;stroke-width:0.268206;stroke-linecap:round;stroke-linejoin:round;stroke-miterlimit:4;stroke-dasharray:none;stroke-dashoffset:0;stroke-opacity:1;paint-order:fill markers stroke" />
  <g
     style="stroke-width:1.70948958"
     transform="matrix(0.58560654,0,0,0.58433399,-3.2118164,2.5596738)"
     id="g6950">
    <g
       style="stroke-width:1.70948958"
       id="g6741"
       transform="matrix(0.26820604,0,0,0.26820604,1.0296112,-240.22176)">
      <path
         id="path6683"
         d="m 87.761721,972.12624 -0.03641,2.25041 v 41.48545 h 7.930295 v -37.2695 z"
         style="opacity:1;vector-effect:none;fill:#b76b68;fill-opacity:1;stroke:#ffffff;stroke-width:1.21721506;stroke-linecap:round;stroke-linejoin:round;stroke-miterlimit:4;stroke-dasharray:none;stroke-dashoffset:0;stroke-opacity:1;paint-order:fill markers stroke"
         inkscape:connector-curvature="0" />
      <path
         id="path6677"
         d="m 97.709182,988.52476 v 27.33734 h 7.930298 v -22.53111 z"
         style="opacity:1;vector-effect:none;fill:#b76b68;fill-opacity:1;stroke:#ffffff;stroke-width:1.21721506;stroke-linecap:round;stroke-linejoin:round;stroke-miterlimit:4;stroke-dasharray:none;stroke-dashoffset:0;stroke-opacity:1;paint-order:fill markers stroke"
         inkscape:connector-curvature="0" />
      <path
         id="path6673"
         d="m 107.69305,987.99024 v 27.87186 h 6.06606 l 0.10923,-22.97069 z"
         style="opacity:1;vector-effect:none;fill:#b76b68;fill-opacity:1;stroke:#ffffff;stroke-width:1.21721506;stroke-linecap:round;stroke-linejoin:round;stroke-miterlimit:4;stroke-dasharray:none;stroke-dashoffset:0;stroke-opacity:1;paint-order:fill markers stroke"
         inkscape:connector-curvature="0" />
    </g>
    <g
       style="stroke-width:1.70948958"
       transform="matrix(0.26820604,0,0,0.26820604,19.273981,-240.22176)"
       id="g6750">
      <path
         inkscape:connector-curvature="0"
         id="path6681"
         d="m 85.664453,990.25573 -7.923013,2.20528 v 23.40109 h 7.923013 z"
         style="opacity:1;vector-effect:none;fill:#4f9f43;fill-opacity:1;stroke:#ffffff;stroke-width:1.21721494;stroke-linecap:round;stroke-linejoin:round;stroke-miterlimit:4;stroke-dasharray:none;stroke-dashoffset:0;stroke-opacity:1;paint-order:fill markers stroke" />
      <path
         inkscape:connector-curvature="0"
         id="path6679"
         d="m 75.680584,978.49124 -7.923013,3.60958 v 33.76128 h 7.923013 z"
         style="opacity:1;vector-effect:none;fill:#4f9f43;fill-opacity:1;stroke:#ffffff;stroke-width:1.21721482;stroke-linecap:round;stroke-linejoin:round;stroke-miterlimit:4;stroke-dasharray:none;stroke-dashoffset:0;stroke-opacity:1;paint-order:fill markers stroke" />
      <path
         inkscape:connector-curvature="0"
         id="path6675"
         d="m 65.696711,997.90573 -7.923013,1.97429 v 15.98208 h 7.923013 z"
         style="opacity:1;vector-effect:none;fill:#4f9f43;fill-opacity:1;stroke:#ffffff;stroke-width:1.21721494;stroke-linecap:round;stroke-linejoin:round;stroke-miterlimit:4;stroke-dasharray:none;stroke-dashoffset:0;stroke-opacity:1;paint-order:fill markers stroke" />
      <path
         inkscape:connector-curvature="0"
         id="path6627"
         d="m 55.712842,988.11268 -5.738361,2.5603 v 25.18912 h 5.738361 z"
         style="opacity:1;vector-effect:none;fill:#4f9f43;fill-opacity:1;stroke:#ffffff;stroke-width:1.21721506;stroke-linecap:round;stroke-linejoin:round;stroke-miterlimit:4;stroke-dasharray:none;stroke-dashoffset:0;stroke-opacity:1;paint-order:fill markers stroke" />
    </g>
    <rect
       transform="matrix(-0.99999658,-0.00261702,5.9789329e-4,-0.99999982,0,0)"
       y="-32.174992"
       x="-32.244343"
       height="11.161442"
       width="0.22428478"
       id="rect6643-2"
       style="opacity:0.81600001;vector-effect:none;fill:#6893b7;fill-opacity:1;stroke:none;stroke-width:0.32646477;stroke-linecap:round;stroke-linejoin:round;stroke-miterlimit:4;stroke-dasharray:none;stroke-dashoffset:0;stroke-opacity:1;paint-order:fill markers stroke" />
  </g>
</svg>
