<?xml version="1.0" encoding="UTF-8" standalone="no"?>
<!-- Created with Inkscape (http://www.inkscape.org/) -->

<svg
   xmlns:dc="http://purl.org/dc/elements/1.1/"
   xmlns:cc="http://creativecommons.org/ns#"
   xmlns:rdf="http://www.w3.org/1999/02/22-rdf-syntax-ns#"
   xmlns:svg="http://www.w3.org/2000/svg"
   xmlns="http://www.w3.org/2000/svg"
   xmlns:sodipodi="http://sodipodi.sourceforge.net/DTD/sodipodi-0.dtd"
   xmlns:inkscape="http://www.inkscape.org/namespaces/inkscape"
   version="1.1"
   width="24"
   height="24"
   id="svg2"
   inkscape:version="0.92.3 (2405546, 2018-03-11)"
   sodipodi:docname="table-green.svg">
  <sodipodi:namedview
     pagecolor="#ffffff"
     bordercolor="#666666"
     borderopacity="1"
     objecttolerance="10"
     gridtolerance="10"
     guidetolerance="10"
     inkscape:pageopacity="0"
     inkscape:pageshadow="2"
     inkscape:window-width="1920"
     inkscape:window-height="1001"
     id="namedview3602"
     showgrid="false"
     inkscape:zoom="7.1610366"
     inkscape:cx="12.470952"
     inkscape:cy="11.61903"
     inkscape:window-x="-9"
     inkscape:window-y="-9"
     inkscape:window-maximized="1"
     inkscape:current-layer="g7756">
    <inkscape:grid
       type="xygrid"
       id="grid4173"
       empspacing="4"
       visible="true"
       enabled="true"
       snapvisiblegridlinesonly="true" />
  </sodipodi:namedview>
  <defs
     id="defs4" />
  <metadata
     id="metadata7">
    <rdf:RDF>
      <cc:Work
         rdf:about="">
        <dc:format>image/svg+xml</dc:format>
        <dc:type
           rdf:resource="http://purl.org/dc/dcmitype/StillImage" />
        <dc:title></dc:title>
      </cc:Work>
    </rdf:RDF>
  </metadata>
  <rect
     style="opacity:1;vector-effect:none;fill:#ffffff;fill-opacity:1;stroke:none;stroke-width:1;stroke-linecap:round;stroke-linejoin:round;stroke-miterlimit:4;stroke-dasharray:none;stroke-dashoffset:0;stroke-opacity:1;paint-order:fill markers stroke"
     id="rect7805"
     width="18.552744"
     height="18.7731"
     x="1.9857484"
     y="2.8181157" />
  <g
     id="g7756"
     style="stroke:none;stroke-width:1.49528909;stroke-opacity:1"
     transform="matrix(0.66876701,0,0,0.66876701,8.3692476,26.261352)">
    <path
       style="opacity:1;vector-effect:none;fill:#4c7860;fill-opacity:1;stroke:none;stroke-width:0.40104544;stroke-linecap:round;stroke-linejoin:round;stroke-miterlimit:4;stroke-dasharray:none;stroke-dashoffset:0;stroke-opacity:1;paint-order:fill markers stroke"
       d="m -9.5451767,-28.179533 v -6.704991 H 18.670975 l -0.02971,6.704991 z"
       id="path6952-3"
       inkscape:connector-curvature="0"
       sodipodi:nodetypes="ccccc" />
    <path
       inkscape:connector-curvature="0"
       id="rect7717"
       d="m -10.078852,-35.962611 v 0.02734 h -0.02734 v 1.455078 h 0.02734 v 5.613282 h -0.02734 v 1.457031 h 0.02734 v 5.611328 h -0.02734 v 1.457031 h 0.02734 v 5.611328 h -0.02734 v 1.457032 h 0.02734 v 5.6113276 h -0.02734 v 1.4570313 h 0.02734 v 0.027344 h 1.4570319 v -0.027344 h 5.6113278 v 0.027344 h 1.4570312 v -0.027344 h 5.6113282 v 0.027344 h 1.4570312 v -0.027344 H 11.12818 v 0.027344 h 1.455078 v -0.027344 h 5.613281 v 0.027344 h 1.457031 v -0.027344 h 0.02539 v -1.4570313 h -0.02539 v -5.6113276 h 0.02539 v -1.457032 h -0.02539 v -5.611328 h 0.02539 v -1.457031 h -0.02539 v -5.611328 h 0.02539 v -1.457031 h -0.02539 v -5.613282 h 0.02539 v -1.455078 h -0.02539 v -0.02734 h -1.457031 v 0.02734 h -5.613281 v -0.02734 H 11.12818 v 0.02734 H 5.5148983 v -0.02734 H 4.0578671 v 0.02734 h -5.6113282 v -0.02734 h -1.4570312 v 0.02734 h -5.6113278 v -0.02734 z m 1.4570319,1.482422 h 5.6113278 v 5.613282 h -5.6113278 z m 7.068359,0 h 5.6113282 v 5.613282 h -5.6113282 z m 7.0683594,0 H 11.12818 v 5.613282 H 5.5148983 Z m 7.0683597,0 h 5.613281 v 5.613282 h -5.613281 z m -21.2050781,7.070313 h 5.6113278 v 5.611328 h -5.6113278 z m 7.068359,0 h 5.6113282 v 5.611328 h -5.6113282 z m 7.0683594,0 H 11.12818 v 5.611328 H 5.5148983 Z m 7.0683597,0 h 5.613281 v 5.611328 h -5.613281 z m -21.2050781,7.068359 h 5.6113278 v 5.611328 h -5.6113278 z m 7.068359,0 h 5.6113282 v 5.611328 h -5.6113282 z m 7.0683594,0 H 11.12818 v 5.611328 H 5.5148983 Z m 7.0683597,0 h 5.613281 v 5.611328 h -5.613281 z m -21.2050781,7.06836 h 5.6113278 v 5.6113276 h -5.6113278 z m 7.068359,0 h 5.6113282 v 5.6113276 h -5.6113282 z m 7.0683594,0 H 11.12818 v 5.6113276 H 5.5148983 Z m 7.0683597,0 h 5.613281 v 5.6113276 h -5.613281 z"
       style="opacity:1;vector-effect:none;fill:#a0a0a0;fill-opacity:1;stroke:none;stroke-width:0.40104559;stroke-linecap:round;stroke-linejoin:round;stroke-miterlimit:4;stroke-dasharray:none;stroke-dashoffset:0;stroke-opacity:1;paint-order:fill markers stroke" />
  </g>
</svg>
